<svg xmlns="http://www.w3.org/2000/svg" viewBox="0 0 987 391" role="img" aria-label="Parameter anatomy of gpt2-medium ">
<style>
  text { font-family: "IBM Plex Mono", ui-monospace, Menlo, monospace; }
  .cap { font-size: 11px; fill: var(--anat-ink, #5C6675); letter-spacing: .06em;
         text-transform: uppercase; }
  .side { font-size: 10.5px; fill: var(--anat-ink, #5C6675); }
  .dim { font-size: 9.5px; fill: var(--anat-faint, #8C95A3); }
  .in { font-size: 10px; fill: #FFF; font-weight: 500; }
  .out { font-size: 10px; fill: var(--anat-ink, #5C6675); font-weight: 500; }
  .mx rect { transition: opacity .12s ease; }
  .mx:hover rect, .mx:focus rect { opacity: .74; }
  .mx:focus { outline: none; }
  .mx:focus rect { stroke: var(--anat-ink, #5C6675); stroke-width: 1.5; }
  @media (prefers-reduced-motion: reduce) { .mx rect { transition: none; } }
</style>
<g transform="translate(18,18)"><rect x="0" y="26.0" width="132" height="44.4" fill="var(--anat-emb, #8172B3)" rx="1"/><text class="in" x="66" y="51.7" text-anchor="middle">embeddings</text><rect x="0.00" y="73.40" width="44.00" height="9.55" fill="var(--anat-attn, #4C72B0)"/><rect x="44.00" y="73.40" width="87.96" height="9.55" fill="var(--anat-ffn, #DD8452)"/><rect x="131.96" y="73.40" width="0.04" height="9.55" fill="var(--anat-norm, #937860)"/><rect x="0.00" y="84.05" width="44.00" height="9.55" fill="var(--anat-attn, #4C72B0)"/><rect x="44.00" y="84.05" width="87.96" height="9.55" fill="var(--anat-ffn, #DD8452)"/><rect x="131.96" y="84.05" width="0.04" height="9.55" fill="var(--anat-norm, #937860)"/><rect x="0.00" y="94.70" width="44.00" height="9.55" fill="var(--anat-attn, #4C72B0)"/><rect x="44.00" y="94.70" width="87.96" height="9.55" fill="var(--anat-ffn, #DD8452)"/><rect x="131.96" y="94.70" width="0.04" height="9.55" fill="var(--anat-norm, #937860)"/><rect x="0.00" y="105.35" width="44.00" height="9.55" fill="var(--anat-attn, #4C72B0)"/><rect x="44.00" y="105.35" width="87.96" height="9.55" fill="var(--anat-ffn, #DD8452)"/><rect x="131.96" y="105.35" width="0.04" height="9.55" fill="var(--anat-norm, #937860)"/><rect x="0.00" y="116.00" width="44.00" height="9.55" fill="var(--anat-attn, #4C72B0)"/><rect x="44.00" y="116.00" width="87.96" height="9.55" fill="var(--anat-ffn, #DD8452)"/><rect x="131.96" y="116.00" width="0.04" height="9.55" fill="var(--anat-norm, #937860)"/><rect x="0.00" y="126.65" width="44.00" height="9.55" fill="var(--anat-attn, #4C72B0)"/><rect x="44.00" y="126.65" width="87.96" height="9.55" fill="var(--anat-ffn, #DD8452)"/><rect x="131.96" y="126.65" width="0.04" height="9.55" fill="var(--anat-norm, #937860)"/><rect x="0.00" y="137.30" width="44.00" height="9.55" fill="var(--anat-attn, #4C72B0)"/><rect x="44.00" y="137.30" width="87.96" height="9.55" fill="var(--anat-ffn, #DD8452)"/><rect x="131.96" y="137.30" width="0.04" height="9.55" fill="var(--anat-norm, #937860)"/><rect x="0.00" y="147.95" width="44.00" height="9.55" fill="var(--anat-attn, #4C72B0)"/><rect x="44.00" y="147.95" width="87.96" height="9.55" fill="var(--anat-ffn, #DD8452)"/><rect x="131.96" y="147.95" width="0.04" height="9.55" fill="var(--anat-norm, #937860)"/><rect x="0.00" y="158.60" width="44.00" height="9.55" fill="var(--anat-attn, #4C72B0)"/><rect x="44.00" y="158.60" width="87.96" height="9.55" fill="var(--anat-ffn, #DD8452)"/><rect x="131.96" y="158.60" width="0.04" height="9.55" fill="var(--anat-norm, #937860)"/><rect x="0.00" y="169.25" width="44.00" height="9.55" fill="var(--anat-attn, #4C72B0)"/><rect x="44.00" y="169.25" width="87.96" height="9.55" fill="var(--anat-ffn, #DD8452)"/><rect x="131.96" y="169.25" width="0.04" height="9.55" fill="var(--anat-norm, #937860)"/><rect x="0.00" y="179.90" width="44.00" height="9.55" fill="var(--anat-attn, #4C72B0)"/><rect x="44.00" y="179.90" width="87.96" height="9.55" fill="var(--anat-ffn, #DD8452)"/><rect x="131.96" y="179.90" width="0.04" height="9.55" fill="var(--anat-norm, #937860)"/><rect x="0.00" y="190.55" width="44.00" height="9.55" fill="var(--anat-attn, #4C72B0)"/><rect x="44.00" y="190.55" width="87.96" height="9.55" fill="var(--anat-ffn, #DD8452)"/><rect x="131.96" y="190.55" width="0.04" height="9.55" fill="var(--anat-norm, #937860)"/><rect x="0.00" y="201.20" width="44.00" height="9.55" fill="var(--anat-attn, #4C72B0)"/><rect x="44.00" y="201.20" width="87.96" height="9.55" fill="var(--anat-ffn, #DD8452)"/><rect x="131.96" y="201.20" width="0.04" height="9.55" fill="var(--anat-norm, #937860)"/><rect x="0.00" y="211.85" width="44.00" height="9.55" fill="var(--anat-attn, #4C72B0)"/><rect x="44.00" y="211.85" width="87.96" height="9.55" fill="var(--anat-ffn, #DD8452)"/><rect x="131.96" y="211.85" width="0.04" height="9.55" fill="var(--anat-norm, #937860)"/><rect x="0.00" y="222.50" width="44.00" height="9.55" fill="var(--anat-attn, #4C72B0)"/><rect x="44.00" y="222.50" width="87.96" height="9.55" fill="var(--anat-ffn, #DD8452)"/><rect x="131.96" y="222.50" width="0.04" height="9.55" fill="var(--anat-norm, #937860)"/><rect x="0.00" y="233.15" width="44.00" height="9.55" fill="var(--anat-attn, #4C72B0)"/><rect x="44.00" y="233.15" width="87.96" height="9.55" fill="var(--anat-ffn, #DD8452)"/><rect x="131.96" y="233.15" width="0.04" height="9.55" fill="var(--anat-norm, #937860)"/><rect x="0.00" y="243.80" width="44.00" height="9.55" fill="var(--anat-attn, #4C72B0)"/><rect x="44.00" y="243.80" width="87.96" height="9.55" fill="var(--anat-ffn, #DD8452)"/><rect x="131.96" y="243.80" width="0.04" height="9.55" fill="var(--anat-norm, #937860)"/><rect x="0.00" y="254.45" width="44.00" height="9.55" fill="var(--anat-attn, #4C72B0)"/><rect x="44.00" y="254.45" width="87.96" height="9.55" fill="var(--anat-ffn, #DD8452)"/><rect x="131.96" y="254.45" width="0.04" height="9.55" fill="var(--anat-norm, #937860)"/><rect x="0.00" y="265.10" width="44.00" height="9.55" fill="var(--anat-attn, #4C72B0)"/><rect x="44.00" y="265.10" width="87.96" height="9.55" fill="var(--anat-ffn, #DD8452)"/><rect x="131.96" y="265.10" width="0.04" height="9.55" fill="var(--anat-norm, #937860)"/><rect x="0.00" y="275.75" width="44.00" height="9.55" fill="var(--anat-attn, #4C72B0)"/><rect x="44.00" y="275.75" width="87.96" height="9.55" fill="var(--anat-ffn, #DD8452)"/><rect x="131.96" y="275.75" width="0.04" height="9.55" fill="var(--anat-norm, #937860)"/><rect x="0.00" y="286.40" width="44.00" height="9.55" fill="var(--anat-attn, #4C72B0)"/><rect x="44.00" y="286.40" width="87.96" height="9.55" fill="var(--anat-ffn, #DD8452)"/><rect x="131.96" y="286.40" width="0.04" height="9.55" fill="var(--anat-norm, #937860)"/><rect x="0.00" y="297.05" width="44.00" height="9.55" fill="var(--anat-attn, #4C72B0)"/><rect x="44.00" y="297.05" width="87.96" height="9.55" fill="var(--anat-ffn, #DD8452)"/><rect x="131.96" y="297.05" width="0.04" height="9.55" fill="var(--anat-norm, #937860)"/><rect x="0.00" y="307.70" width="44.00" height="9.55" fill="var(--anat-attn, #4C72B0)"/><rect x="44.00" y="307.70" width="87.96" height="9.55" fill="var(--anat-ffn, #DD8452)"/><rect x="131.96" y="307.70" width="0.04" height="9.55" fill="var(--anat-norm, #937860)"/><rect x="0.00" y="318.35" width="44.00" height="9.55" fill="var(--anat-attn, #4C72B0)"/><rect x="44.00" y="318.35" width="87.96" height="9.55" fill="var(--anat-ffn, #DD8452)"/><rect x="131.96" y="318.35" width="0.04" height="9.55" fill="var(--anat-norm, #937860)"/><text class="side" x="141" y="201.2" dominant-baseline="middle">24 identical blocks</text><text class="cap" x="0" y="14">whole model &#183; 354.82M</text></g><g transform="translate(322,18)"><g class="mx" tabindex="0"><title>h.0.attn.c_attn.weight — 1024 x 3072 = 3,145,728 parameters, std 0.1677, max |w| 2.920</title><rect x="0.0" y="195.0" width="169.0" height="56.3" fill="var(--anat-attn, #4C72B0)" rx="1"/><text class="in" x="84.5" y="226.6" text-anchor="middle">QKV</text></g><text class="dim" x="84.5" y="264.3" text-anchor="middle">1024&#215;3072</text><g class="mx" tabindex="0"><title>h.0.attn.c_proj.weight — 1024 x 1024 = 1,048,576 parameters, std 0.0420, max |w| 0.846</title><rect x="183.0" y="195.0" width="56.3" height="56.3" fill="var(--anat-attn, #4C72B0)" rx="1"/><text class="in" x="211.1" y="226.6" text-anchor="middle">O</text></g><text class="dim" x="211.1" y="264.3" text-anchor="middle">1024&#215;1024</text><g class="mx" tabindex="0"><title>h.0.mlp.c_fc.weight — 1024 x 4096 = 4,194,304 parameters, std 0.1020, max |w| 1.804</title><rect x="253.3" y="195.0" width="225.3" height="56.3" fill="var(--anat-ffn, #DD8452)" rx="1"/><text class="in" x="365.9" y="226.6" text-anchor="middle">up</text></g><text class="dim" x="365.9" y="264.3" text-anchor="middle">1024&#215;4096</text><g class="mx" tabindex="0"><title>h.0.mlp.c_proj.weight — 4096 x 1024 = 4,194,304 parameters, std 0.0833, max |w| 4.665</title><rect x="492.6" y="26.0" width="56.3" height="225.3" fill="var(--anat-ffn, #DD8452)" rx="1"/><text class="in" x="520.7" y="142.1" text-anchor="middle">down</text></g><text class="dim" x="520.7" y="264.3" text-anchor="middle">4096&#215;1024</text><text class="cap" x="0" y="14">one block &#183; 12.60M &#215; 24</text></g>
</svg>